<svg xmlns="http://www.w3.org/2000/svg" viewBox="0 0 64 64" role="img" aria-label="Stark Software">
  <rect width="64" height="64" rx="14" fill="#f8fbff"/>
  <rect x="4" y="4" width="56" height="56" rx="12" fill="none" stroke="#d8bcae" stroke-width="4"/>
  <path fill="#a34824" d="M33.4 49.2c-4.3 0-8.2-.9-11.5-2.7v-8.3c1.6 1.3 3.4 2.3 5.5 3.1 2.1.8 4.1 1.2 6 1.2 1.8 0 3.2-.3 4.1-.9 1-.6 1.5-1.4 1.5-2.5 0-.8-.3-1.5-.9-2-.6-.6-1.4-1-2.4-1.5-1-.4-2.4-.9-4.2-1.5-3.3-1.1-5.8-2.5-7.4-4.1-1.6-1.6-2.4-3.9-2.4-6.7 0-2.4.6-4.5 1.9-6.2 1.3-1.7 3.1-3 5.4-3.9 2.3-.9 4.9-1.3 7.9-1.3 3.9 0 7.2.7 9.8 2v7.8c-2.7-2-5.9-3-9.6-3-1.8 0-3.2.3-4.2.9-1 .6-1.5 1.4-1.5 2.5 0 1.1.5 1.9 1.6 2.5 1 .6 2.8 1.3 5.2 2.1 3.7 1.2 6.4 2.7 8 4.5 1.6 1.8 2.4 4.1 2.4 7 0 3.6-1.4 6.4-4.1 8.2-2.8 1.9-6.5 2.8-11.1 2.8Z"/>
</svg>
